# xmcd CD database file
#
# Track frame offsets:
#	150
#	24794
#	46497
#	73429
#	102427
#	131332
#	155822
#	198085
#	230236
#	247324
#
# Disc length: 3803 seconds
#
# Revision: 1
# Processed by: cddbd v1.5.2PL0 Copyright (c) Steve Scherf et al.
# Submitted via: CDex 1.70beta2
#
DISCID=920ed90a
DTITLE=Goran Bare - Srce
DYEAR=2006
DGENRE=Blues
TTITLE0=Izabirem zivot
TTITLE1=Svako jutro
TTITLE2=I dok plese sama s kisom
TTITLE3=Uh kakav svijet
TTITLE4=Ovisnicki blues
TTITLE5=Nitko ne moze sam
TTITLE6=Pomozi mi
TTITLE7=Profesionalno na Balkanu sviram rokenrol
TTITLE8=Waltz za pokojne
TTITLE9=Tamna je noc
EXTD=YEAR: 2006
EXTT0=
EXTT1=
EXTT2=
EXTT3=
EXTT4=
EXTT5=
EXTT6=
EXTT7=
EXTT8=
EXTT9=
PLAYORDER=
